<svg version="1.1" id="template" xmlns="http://www.w3.org/2000/svg" x="0" y="0" viewBox="0 0 1936.18 1218.73" xml:space="preserve"><style>.st1{stroke-miterlimit:10;display:none;fill:#fff;stroke:#000}.st3{fill:gray}.st4{fill:#ff8a8d}.st5{fill:#666}.st6{fill:none}.st7{font-family:&apos;MyriadPro-Regular&apos;}.st8{font-size:30px}.st9{fill:#ffa31f}.st10{fill:#555}.st15{font-size:61.5866px}</style><path d="M647.39 488.17L491.86 332.64m732.17 156.31l155.53-155.53m-156.27 367.39l155.53 155.53M646.64 700.03L491.11 855.56" opacity=".5" fill="none" stroke="#2d687b" stroke-width="5" stroke-miterlimit="10"/><ellipse id="swasta" class="st1" cx="1496.52" cy="301" rx="96.35" ry="66.75"/><ellipse id="pemerintah" class="st1" cx="1495.98" cy="865.95" rx="96.35" ry="66.75"/><ellipse id="nelayan" class="st1" cx="374.36" cy="879.88" rx="96.35" ry="66.75"/><ellipse id="lembaga" class="st1" cx="374.36" cy="301" rx="96.35" ry="66.75"/><g id="pesut-illo"><path class="st3" d="M910.86 550.26l-1.7-20.03 7.89-5.57s22.04 1.59 56.52 17.39l64.93-5.8 48.22-2.37s69.22 7.38 82.46 10.58l33.24-2.25s13.64-2.31 31.96 3.05l9.74 6.09s14.15 7.16 14.73 24.11c0 0 10.29 19.3-44.91 31.19 0 0-53.85 14.08-68.53 24.55 0 0-20.68 58.53-72.25 55.42 0 0 1.22-12.78 25.37-50.86 0 0-100.01 54.32-371.13-26.13 0 0-49.87 44.01-62.05 36.4 0 0 11.36-12.21 15.9-23.25 0 0 6.24-18.11 16.59-18.41 0 0-5.72.48-11.01-27.89 0 0 12.51-5.39 32.78 22.87l53.43-12.32c.01 0 131.63-11.17 137.82-36.77zm300.24 23.81c-4.45.21-8.8 2.15-11.93 5.32"/><path d="M1211.08 573.43c-4.64.24-9.09 2.23-12.37 5.51-.58.58.34 1.47.92.89 3.05-3.05 7.18-4.9 11.49-5.12.82-.04.78-1.32-.04-1.28z"/><path class="st3" d="M1218.28 587.9c9.19 4 19.4 5.64 29.38 4.71"/><path d="M1217.97 588.46a60.908 60.908 0 0022.99 5.03c2.24.05 4.48-.04 6.72-.24.82-.07.78-1.36-.04-1.28-7.71.7-15.5-.1-22.9-2.37-2.09-.64-4.14-1.4-6.15-2.27-.75-.31-1.38.81-.62 1.13z"/></g><g id="lembaga-illo"><path class="st4" d="M1536.83 907.19s-87.81-39.72-70.72-103.08c0 0 29.3-53.3 70.72-7.54v110.62z"/><path class="st4" d="M1535.83 907.19s87.81-39.72 70.72-103.08c0 0-29.3-53.3-70.72-7.54v110.62z"/><path class="st5" d="M1421.93 912.9v-66.48s6.68-10.83 14.56 0l4.43 30.83s-6.4 2.16-3.45 14.47c0 0 10.83 26.1 18.22 30.04 0 0 5.42 1.48 4.43-4.43 0 0-13.3-17.05-16.25-28.56 0 0-3.94-17.46 13.79-7 0 0 8.37 22.76 26.1 30.64 0 0 18.71 9.36 19.7 37.43l-39.57 21.18-37.75-50.23-4.21-7.89zm229.59 0v-66.48s-6.68-10.83-14.56 0l-4.43 30.83s6.4 2.16 3.45 14.47c0 0-10.83 26.1-18.22 30.04 0 0-5.42 1.48-4.43-4.43 0 0 13.3-17.05 16.25-28.56 0 0 3.94-17.46-13.79-7 0 0-8.37 22.76-26.1 30.64 0 0-18.71 9.36-19.7 37.43l39.57 21.18 37.75-50.23 4.21-7.89zm-184.49 63.53l40.88-21.18s18.71-6.4 10.34 13.79l-42.85 21.67s-19.21 3.94-8.37-14.28zm140.41 0l-40.88-21.18s-18.71-6.4-10.34 13.79l42.85 21.67s19.2 3.94 8.37-14.28z"/><path class="st6" d="M1481.93 1004.85h196.72v45.19h-196.72z"/><text transform="translate(1481.93 1026.148)" class="st7 st8">Lembaga</text></g><g id="nelayan-illo"><path class="st9" d="M1411.45 377.27l11.97-16.13s-23.62-53.58 5.19-74.32v85.27l-17.16 5.18z"/><path class="st9" d="M1444.77 377.27l-11.97-16.13s23.62-53.58-5.19-74.32v85.27l17.16 5.18z"/><path class="st5" d="M1478.9 292.59l-24.41 10.4s-18.99.66-6.78-16.17l31.19-14.57h41.14s6.78 1.36 7.69 7.23v38.88h6.78v-38.88l7.69-7.23h40.69l6.33 7.69v38.43h11.75v-58.32l7.23-9.04h51.99s4.97-.45 9.49 11.75l25.77 55.61h33s-20.95 60.91-43.11 62.27c0 0 25.77 14.01 0 0l-85.29 1.93s28.93 18.99 0 0l-78.21-.9s32.21 20.8 0 0h-67.81V317h25.77l-.9-24.41z"/><path class="st5" d="M1593.18 247.97l-12.35-9.43s-5.54-15.8-17.89-15.8l.01 46.48s15.74 1.4 17.87-19.73l12.36-1.52z"/><path class="st5" d="M1534 247.97l12.35-9.43s5.54-15.8 17.89-15.8l-.01 46.48s-15.74 1.4-17.87-19.73l-12.36-1.52zm-4.42 0l-12.35-9.43s-5.54-15.8-17.89-15.8l.01 46.48s15.74 1.4 17.87-19.73l12.36-1.52z"/><path class="st5" d="M1470.39 247.97l12.35-9.43s5.54-15.8 17.89-15.8l-.01 46.48s-15.74 1.4-17.87-19.73l-12.36-1.52z"/><path class="st6" d="M1515.2 398.44h196.72v45.19H1515.2z"/><text transform="translate(1515.2 419.744)" class="st7 st8">Nelayan</text></g><g id="pemerintah-illo"><path class="st5" d="M360.03 294.71h90.18v94.64h-90.18zm11.92-2.74v-18.5s4.74-10.44 10.91-11.39h22.27v29.89h-33.18z"/><path class="st5" d="M437.31 291.97v-18.5s-4.74-10.44-10.91-11.39h-22.27v29.89h33.18zm-16.92-50.87c0 9.53-6.91 17.25-15.42 17.25s-15.42-7.72-15.42-17.25 6.91-18.25 15.42-18.25 15.42 8.73 15.42 18.25z"/><path class="st10" d="M325.15 228.78l.52-6.92 5.1-7.43-7.83-19.13-9.57 18.7 4.35 7.86v60.41l-19.51 43.49 39.08 21.56"/><path class="st5" d="M317.99 336.67v38.1h-10.7v13.58h30.01v-12.71l-11.63-.44v-34.17z"/><path class="st10" d="M325.15 228.78l.13 49.04 12.01 69.5s31.64-43.93 2.94-98.46l-15.08-20.08z"/><path d="M338 352.21l-26.33-11.9 41.21-63.81c0 .01 14.4 36.43-14.88 75.71z" fill="#efebf2"/><path d="M288.02 330.49l32.07-48.28s17.39-27.56 17.6-36.45c0 0 8.53 9.64 15.18 30.75l-41.21 63.81-23.64-9.83z" fill="#e90006"/><path class="st6" d="M306.85 411.19h196.72v45.19H306.85z"/><text transform="translate(306.846 432.487)" class="st7 st8">Pemerintah</text></g><g id="industri-illo"><path class="st5" d="M221.22 947.61h75.61v-39.57h10.2v-10.19h13.78v-22.78h10.2v22.78h11.39v10.79h17.98v29.38h15.59l18.58-82.46h9.59v-9.87h37.77v9.87h9l16.18 82.46 14.99-.6v44.51H221.22z"/><path d="M421.53 839.1s-11.39 2.4-3.6-6.59c0 0-7.79-12.59 7.79-11.99 0 0-5.4-17.39 10.79-14.39 0 0 6-12.59 14.99-13.79 0 0 7.79-1.2 7.79 12.59l-5.4 7.79s4.8 12.59-10.19 14.99c0 0 4.2 6.59-8.99 8.99.01 0-9.58 8.99-13.18 2.4zm37.77-22.19s-2.15-8.21 4.99-8.96c0 0-3.01-7.52 6.02-7.52 0 0 1.88-7.95 7.9-8.11 0 0 6.77 1.44 1.5 12.3 0 0-1.13 7.48-6.4 7.1.01-.01-8.09 14.91-14.01 5.19zm5.76-27.41s-.88-6.61 7.64-6.95c0 0 7.24-5.6 3.75 3.47 0 0-.68 6.51-4.09 6.29 0 0-4.42 5.24-7.32 2.85-.01 0-5.57-2.81.02-5.66z" fill="#8ac5ff"/><path d="M306.48 913.81h11.79v11.79h-11.79zm15.44 0h11.79v11.79h-11.79zm14.92 0h11.79v11.79h-11.79zm-22.79 16.61h11.79v11.79h-11.79zm15.76 0h11.79v11.79h-11.79z" fill="#fff"/><path class="st6" d="M301.09 1004.85h98.45v45.19h-98.45z"/><text transform="translate(301.089 1026.147)" class="st7 st8">Industri</text></g><text transform="translate(511.43 149.662)"><tspan x="0" y="0" class="st7 st15">Siapa saja yang berperan penting</tspan><tspan x="24.48" y="73.9" class="st7 st15">bagi pesut di Teluk Balikpapan?</tspan></text></svg>