<svg version="1.1" id="Layer_1" xmlns="http://www.w3.org/2000/svg" x="0" y="0" viewBox="0 0 1366 768" xml:space="preserve"><style>.st1{fill:#cecece}</style><path class="st1" d="M537.3 350l-14.9-44.7 14.9-17s51-8.5 138.3 8.5l144.7-48.9L928.8 216s161.7-21.3 193.6-21.3l74.4-23.4s29.8-12.8 74.4-10.6l25.5 8.5s36.2 8.5 46.8 46.8c0 0 34 38.3-85.1 95.7 0 0-114.9 61.7-142.5 93.6 0 0-14.9 144.6-134 165.9 0 0-4.2-29.8 29.8-129.8 0 0-197.8 178.7-859.4 144.7 0 0-89.3 127.6-121.2 117 0 0 19.2-34 23.4-61.7 0 0 4.2-44.7 27.7-51 0 0-12.8 4.2-40.4-57.4 0 0 25.5-19.2 87.2 34l114.9-57.4c-.2-.1 293.4-98 293.4-159.6zM1234 239c-10 2.9-18.8 9.7-24.2 18.7"/><path d="M1233.6 237.6c-10.4 3.1-19.5 10.1-25.1 19.4-1 1.6 1.6 3.2 2.6 1.5 5.3-8.6 13.7-15.1 23.3-18 1.8-.6 1-3.5-.8-2.9z"/><path class="st1" d="M1258 266.5c23.1 4 47.3 2.2 69.5-5.4"/><path d="M1257.6 268c18.2 3.2 37 2.8 55.1-1.2 5.1-1.1 10.2-2.5 15.2-4.2 1.8-.6 1-3.5-.8-2.9-17.2 5.8-35.4 8.3-53.4 7.2-5.1-.3-10.2-.9-15.2-1.8-2-.3-2.8 2.6-.9 2.9z"/></svg>